# AST/ASF file generated using VICON BodyLanguage
# -----------------------------------------------
:version 1.10
:name VICON
:units
  mass 1.0
  length 0.45
  angle deg
:documentation
   .ast/.asf automatically generated from VICON data using
   VICON BodyBuilder and BodyLanguage model FoxedUp or BRILLIANT.MOD
:root
   order TX TY TZ RX RY RZ
   axis XYZ
   position 0 0 0  
   orientation 0 0 0 
:bonedata
  begin
     id 1 
     name lhipjoint
     direction 0.584852 -0.759097 0.285867 
     length 2.43633 
     axis 0 0 0  XYZ
  end
  begin
     id 2 
     name lfemur
     direction 0.34202 -0.939693 0  
     length 7.14704  
     axis 0 0 20  XYZ
    dof rx ry rz
    limits (-160.0 20.0)
           (-70.0 70.0)
           (-60.0 70.0)
  end
  begin
     id 3 
     name ltibia
     direction 0.342022 -0.939692 0   
     length 7.68483   
     axis 0 0 20   XYZ
    dof rx
    limits (-10.0 170.0)
  end
  begin
     id 4 
     name lfoot
     direction 0.0999605 -0.274639 0.956337   
     length 2.40452   
     axis -90 7.62852e-016 20   XYZ
    dof rx rz
    limits (-45.0 90.0)
           (-70.0 20.0)
  end
  begin
     id 5 
     name ltoes
     direction 1.53468e-011 -4.21881e-011 1   
     length 1.19837   
     axis -90 7.62852e-016 20   XYZ
    dof rx
    limits (-90.0 20.0)
  end
  begin
     id 6 
     name rhipjoint
     direction -0.569886 -0.769002 0.289597   
     length 2.40495  
     axis 0 0 0  XYZ 
  end
  begin
     id 7 
     name rfemur
     direction -0.34202 -0.939693 0   
     length 7.45086   
     axis 0 0 -20   XYZ
    dof rx ry rz
    limits (-160.0 20.0)
           (-70.0 70.0)
           (-70.0 60.0)
  end
  begin
     id 8 
     name rtibia
     direction -0.34202 -0.939693 0   
     length 7.76831   
     axis 0 0 -20   XYZ
    dof rx
    limits (-10.0 170.0)
 end
 begin
     id 9 
     name rfoot
     direction -0.0798572 -0.219406 0.97236   
     length 2.35911  
     axis -90 -7.62852e-016 -20   XYZ
    dof rx rz
    limits (-45.0 90.0)
           (-20.0 70.0)
  end
  begin
     id 10 
     name rtoes
     direction -1.53469e-011 -4.21728e-011 1   
     length 1.18261   
     axis -90 -7.62852e-016 -20   XYZ
    dof rx
    limits (-90.0 20.0)
  end
  begin
     id 11 
     name lowerback
     direction 0.0242088 0.999437 0.0232389   
     length 2.1561   
     axis 0 0 0   XYZ
    dof rx ry rz
    limits (-20.0 45.0)
           (-30.0 30.0)
           (-30.0 30.0)
  end
  begin
     id 12 
     name upperback
     direction -0.0356893 0.999013 -0.0264323   
     length 2.14431   
     axis 0 0 0   XYZ
    dof rx ry rz
    limits (-20.0 45.0)
           (-30.0 30.0)
           (-30.0 30.0)
  end
  begin
     id 13 
     name thorax
     direction -0.0472163 0.998194 -0.0371284   
     length 2.16169   
     axis 0 0 0   XYZ
    dof rx ry rz
    limits (-20.0 45.0)
           (-30.0 30.0)
           (-30.0 30.0)
  end
  begin
     id 14 
     name lowerneck
     direction 0.00863244 0.999921 0.00911972   
     length 1.58651   
     axis 0 0 0   XYZ
    dof rx ry rz
    limits (-20.0 45.0)
           (-30.0 30.0)
           (-30.0 30.0)
  end
  begin
     id 15 
     name upperneck
     direction 0.149523 0.979068 -0.138086   
     length 1.57486   
     axis 0 0 0   XYZ
    dof rx ry rz
    limits (-20.0 45.0)
           (-30.0 30.0)
           (-30.0 30.0)
  end
  begin
     id 16
     name head
     direction 0.0445219 0.997708 -0.0509576  
     length 1.6019  
     axis 0 0 0   XYZ
    dof rx ry rz
    limits (-20.0 45.0)
           (-30.0 30.0)
           (-30.0 30.0)
  end
  begin
     id 17 
     name lclavicle
     direction 0.911271 0.381667 -0.154644  
     length 3.80848  
     axis 0 0 0   XYZ
    dof ry rz
    limits (-20.0 10.0)
           (0.0 20.0)
  end
  begin
     id 18 
     name lhumerus
     direction 1 -4.49003e-011 2.1308e-027   
     length 5.19069   
     axis 180 -30 -90   XYZ
    dof rx ry rz
    limits (-60.0 90.0)
           (-90.0 90.0)
           (-90.0 90.0)
  end
  begin
     id 19
     name lradius
     direction 1 -4.48914e-011 4.01554e-027   
     length 3.30016   
     axis 180 -30 -90   XYZ
    dof rx
    limits (-10.0 170.0)
  end
  begin
     id 20
     name lwrist
     direction 1 -4.49003e-011 1.1934e-026   
     length 1.65008   
     axis -8.46377e-015 90 90   XYZ
    dof ry
    limits (-180.0 0.0)
 end
  begin
     id 21 
     name lhand
     direction 1 -4.49034e-011 2.38659e-026   
     length 0.707698   
     axis -1.52313e-014 90 90   XYZ
    dof rx rz
    limits (-90.0 90.0)
           (-45.0 45.0)
  end
  begin
     id 22 
     name lfingers
     direction 1 -4.48691e-011 4.77775e-026   
     length 0.570564   
     axis -3.04623e-014 90 90   XYZ
    dof rx
    limits (0.0 90.0)
  end
  begin
     id 23
     name lthumb
     direction 0.707107 -6.34832e-011 0.707107   
     length 0.819219   
     axis -90 45 -1.62303e-014   XYZ
    dof rx rz
    limits (-45.0 45.0)
           (-45.0 45.0)
  end
  begin
     id 24 
     name rclavicle
     direction -0.815579 0.573708 -0.0754329   
     length 3.54371  
     axis 0 0 0   XYZ 
    dof ry rz
    limits (-10.0 20.0)
           (-20.0 0.0)
  end
  begin
     id 25 
     name rhumerus
     direction -1 -4.48956e-011 3.05351e-028  
     length 5.23924   
     axis 180 30 90   XYZ
    dof rx ry rz
    limits (-90.0 60.0)
           (-90.0 90.0)
           (-90.0 90.0)
  end
  begin
     id 26 
     name rradius
     direction -1 -4.49013e-011 3.53849e-027   
     length 3.32953   
     axis 180 30 90   XYZ
    dof rx
    limits (-10.0 170.0)
  end
  begin
     id 27 
     name rwrist
     direction -1 -4.48901e-011 1.19374e-026   
     length 1.66477   
     axis -8.46377e-015 -90 -90   XYZ
    dof ry
    limits (-180.0 0.0)
  end
  begin
     id 28
     name rhand
     direction -1 -4.48877e-011 2.38764e-026   
     length 0.607414   
     axis -1.52313e-014 -90 -90   XYZ
    dof rx rz
    limits (-90.0 90.0)
           (-45.0 45.0)
  end
  begin
     id 29
     name rfingers
     direction -1 -4.48882e-011 4.77521e-026   
     length 0.489712   
     axis -3.04623e-014 -90 -90   XYZ
    dof rx
    limits (0.0 90.0)
  end
  begin
     id 30
     name rthumb
     direction -0.707107 -6.34974e-011 0.707107   
     length 0.703132   
     axis -90 -45 1.62303e-014   XYZ
    dof rx rz
    limits (-45.0 45.0)
           (-45.0 45.0)
  end
:hierarchy
  begin
    root lhipjoint rhipjoint lowerback
    lhipjoint lfemur
    lfemur ltibia
    ltibia lfoot
    lfoot ltoes
    rhipjoint rfemur
    rfemur rtibia
    rtibia rfoot
    rfoot rtoes
    lowerback upperback
    upperback thorax
    thorax lowerneck lclavicle rclavicle
    lowerneck upperneck
    upperneck head
    lclavicle lhumerus
    lhumerus lradius
    lradius lwrist
    lwrist lhand lthumb
    lhand lfingers
    rclavicle rhumerus
    rhumerus rradius
    rradius rwrist
    rwrist rhand rthumb
    rhand rfingers
  end

#!OML:ASF E:\VariousWalksJay\Project 1\Capture day 1\Session 1\Actor2.ASF
:FULLY-SPECIFIED
:DEGREES
268
root -0.686583 12.5169 -23.3209 19.2419 -47.5073 22.4842
lowerback 38.8345 -2.05699 5.76887
upperback 17.8783 -1.73321 -2.77795
thorax 0.549444 -0.532378 -5.35824
lowerneck -8.97543 4.06913 -0.215666
upperneck -18.662 3.67188 -14.4681
head -3.78016 2.42849 -4.48603
rclavicle -6.04305e-014 -5.76476e-015
rhumerus 75.7139 14.9811 -20.9674
rradius 21.115
rwrist 15.7576
rhand -24.7276 -3.83933
rfingers 7.12502
rthumb 1.77467 -33.8117
lclavicle -6.04305e-014 -5.76476e-015
lhumerus 57.069 6.55215 74.8734
lradius 85.1522
lwrist -6.07883
lhand -44.9534 -63.0388
lfingers 7.12502
lthumb -17.7389 -33.8279
rfemur -117.256 -27.8491 28.7107
rtibia 103.008
rfoot -26.1306 0.585807
rtoes -2.74776
lfemur -73.1912 34.8108 -14.9659
ltibia 38.5653
lfoot -11.1977 19.9449
ltoes -15.4587
269
root -0.587993 12.3524 -23.1929 20.8402 -48.0793 21.2437
lowerback 38.9818 -2.02764 5.71466
upperback 18.0738 -1.75426 -2.9533
thorax 0.710917 -0.534631 -5.51044
lowerneck -8.42477 4.14351 -0.12732
upperneck -19.7539 3.6599 -14.2473
head -4.21108 2.47635 -4.47786
rclavicle 3.18055e-014 -4.67144e-014
rhumerus 75.6393 14.7813 -21.6008
rradius 21.5534
rwrist 15.0706
rhand -27.974 -2.46803
rfingers 7.12502
rthumb -1.36078 -32.4434
lclavicle 3.18055e-014 -4.67144e-014
lhumerus 56.7469 5.8437 76.0364
lradius 83.1108
lwrist -5.64692
lhand -44.6843 -62.8788
lfingers 7.12502
lthumb -17.4799 -33.6446
rfemur -119.333 -27.6942 29.9496
rtibia 103.946
rfoot -25.8355 1.20148
rtoes -3.32212
lfemur -75.9109 35.8637 -16.3126
ltibia 40.9355
lfoot -10.7437 19.272
ltoes -15.9265
270
root -0.486639 12.189 -23.0585 22.6299 -48.6143 19.7519
lowerback 39.1186 -1.95588 5.7073
upperback 18.2504 -1.70999 -3.09937
thorax 0.864468 -0.505425 -5.67783
lowerneck -7.95848 4.22251 0.17413
upperneck -20.7585 3.64466 -14.1769
head -4.59218 2.50257 -4.55121
rclavicle -1.74931e-014 9.93923e-016
rhumerus 75.4515 14.6766 -21.5468
rradius 22.2278
rwrist 13.9926
rhand -30.2274 -1.59701
rfingers 7.12502
rthumb -3.53702 -31.5474
lclavicle -1.74931e-014 9.93923e-016
lhumerus 56.3747 4.97523 76.9924
lradius 80.9214
lwrist -4.71666
lhand -44.3687 -63.0171
lfingers 7.12502
lthumb -17.1761 -33.7562
rfemur -121.37 -27.5317 31.3523
rtibia 104.776
rfoot -25.5056 1.86622
rtoes -4.29756
lfemur -78.6073 36.8568 -17.6704
ltibia 43.2637
lfoot -10.2478 18.4653
ltoes -16.7901
271
root -0.383666 12.0483 -22.9376 24.6864 -49.2747 17.9981
lowerback 39.3262 -1.77116 5.53352
upperback 18.3479 -1.58555 -3.31563
thorax 0.915268 -0.450151 -5.85722
lowerneck -7.63787 4.34569 0.71253
upperneck -21.6866 3.70192 -14.1349
head -4.91363 2.53493 -4.67058
rclavicle -4.45278e-014 1.03368e-014
rhumerus 75.808 14.5208 -20.2389
rradius 22.9038
rwrist 12.4745
rhand -32.1777 -0.960593
rfingers 7.12502
rthumb -5.42033 -30.8713
lclavicle -4.45278e-014 1.03368e-014
lhumerus 55.937 4.40536 78.1546
lradius 78.8567
lwrist -5.22473
lhand -44.486 -63.1742
lfingers 7.12502
lthumb -17.289 -33.9232
rfemur -123.182 -27.0402 32.7555
rtibia 105.416
rfoot -25.1728 2.53869
rtoes -4.86452
lfemur -81.0868 37.9619 -18.3111
ltibia 45.4019
lfoot -6.8919 16.2082
ltoes -20.9674
272
root -0.278181 11.9472 -22.832 26.8003 -49.9271 16.1166
lowerback 39.548 -1.36908 5.24478
upperback 18.4601 -1.2399 -3.37334
thorax 1.01428 -0.3056 -5.88183
lowerneck -7.24733 4.36648 1.27853
upperneck -22.6072 3.60125 -14.1946
head -5.25456 2.48767 -4.83098
rclavicle 1.59028e-015 -2.80286e-014
rhumerus 75.539 14.287 -18.9094
rradius 23.659
rwrist 11.7704
rhand -33.7924 -0.421391
rfingers 7.12502
rthumb -6.97913 -30.2863
lclavicle 1.59028e-015 -2.80286e-014
lhumerus 55.8139 3.78254 78.8959
lradius 76.7295
lwrist -3.97186
lhand -44.3771 -62.6502
lfingers 7.12502
lthumb -17.1842 -33.3901
rfemur -124.436 -26.395 33.8889
rtibia 105.787
rfoot -24.9234 3.24192
rtoes -5.22437
lfemur -82.245 38.6539 -15.7941
ltibia 47.3548
lfoot -5.20013 14.7471
ltoes -19.801
273
root -0.17796 11.7934 -22.6969 28.9585 -50.3353 14.0584
lowerback 39.9942 -1.17523 4.98429
upperback 18.4804 -1.11987 -3.54021
thorax 0.914123 -0.267934 -5.95766
lowerneck -6.90565 4.46064 1.6177
upperneck -23.5459 3.67832 -13.9124
head -5.60212 2.52156 -4.84516
rclavicle 9.85972e-014 1.16687e-013
rhumerus 75.4306 14.3582 -18.187
rradius 24.2031
rwrist 12.1064
rhand -36.7371 -0.610403
rfingers 7.12502
rthumb -9.82098 -30.3614
lclavicle 9.85972e-014 1.16687e-013
lhumerus 55.3675 3.40228 79.6237
lradius 74.9131
lwrist -3.63328
lhand -44.2142 -62.5458
lfingers 7.12502
lthumb -17.0274 -33.272
rfemur -125.967 -26.0824 35.1431
rtibia 106.457
rfoot -24.6177 4.09508
rtoes -5.96003
lfemur -84.1543 39.7025 -14.2104
ltibia 49.3649
lfoot -3.32583 13.1151
ltoes -21.3558
274
root -0.0859345 11.656 -22.5679 31.045 -50.5465 11.7884
lowerback 40.8636 -1.71529 4.92737
upperback 18.283 -1.79402 -4.19312
thorax 0.48754 -0.578704 -6.38605
lowerneck -6.39074 4.78918 0.705588
upperneck -24.6919 4.3177 -12.4788
head -6.0949 2.87956 -4.29492
rclavicle 1.90833e-014 1.02772e-013
rhumerus 76.8241 15.3197 -15.1645
rradius 25.1301
rwrist 9.68418
rhand -48.1634 7.97303
rfingers 7.12502
rthumb -20.8254 -20.9293
lclavicle 1.90833e-014 1.02772e-013
lhumerus 54.5617 4.29761 79.5714
lradius 73.1129
lwrist -3.52576
lhand -44.0427 -62.3425
lfingers 7.12502
lthumb -16.8623 -33.0546
rfemur -127.089 -25.84 36.5557
rtibia 107.032
rfoot -24.3664 4.78297
rtoes -7.04312
lfemur -86.4714 40.8985 -13.1916
ltibia 51.7621
lfoot -2.28577 11.8647
ltoes -22.7242
275
root 0.00240905 11.5399 -22.4465 33.0183 -50.6242 9.46583
lowerback 41.5805 -1.41961 4.89441
upperback 18.3722 -1.49135 -4.4047
thorax 0.415378 -0.43072 -6.69184
lowerneck -6.18258 4.73008 1.80389
upperneck -25.3094 4.23767 -12.1441
head -6.30812 2.73034 -4.40149
rclavicle 1.11319e-014 9.93923e-015
rhumerus 75.7604 15.08 -15.5999
rradius 25.6255
rwrist 11.921
rhand -53.7348 4.26629
rfingers 7.12502
rthumb -26.1694 -23.95
lclavicle 1.11319e-014 9.93923e-015
lhumerus 54.3775 3.25608 80.0643
lradius 71.1328
lwrist -4.19545
lhand -44.9053 -61.3139
lfingers 7.12502
lthumb -17.6926 -32.0988
rfemur -127.868 -25.6356 37.947
rtibia 107.53
rfoot -24.1415 5.43032
rtoes -7.24433
lfemur -89.4002 42.2748 -13.0898
ltibia 54.6618
lfoot -1.19084 10.1973
ltoes -22.878
276
root 0.0903257 11.427 -22.32 34.6503 -50.6026 7.40751
lowerback 42.3676 -1.22206 4.98682
upperback 18.3488 -1.25212 -4.64103
thorax 0.194807 -0.308161 -7.0676
lowerneck -5.24824 4.54789 2.23112
upperneck -26.1741 4.03179 -11.5373
head -6.77245 2.58195 -4.33349
rclavicle 3.33958e-014 -2.96189e-014
rhumerus 73.8234 14.726 -18.3286
rradius 26.1311
rwrist 14.1629
rhand -58.2013 0.175869
rfingers 7.12502
rthumb -30.4379 -27.3312
lclavicle 3.33958e-014 -2.96189e-014
lhumerus 54.1631 2.43163 80.5894
lradius 69.223
lwrist -4.97779
lhand -44.4188 -61.1881
lfingers 7.12502
lthumb -17.2244 -31.9315
rfemur -128.542 -25.6658 39.205
rtibia 108.002
rfoot -24.0007 5.93723
rtoes -7.92194
lfemur -92.49 43.4616 -13.566
ltibia 57.8961
lfoot -0.8137 8.59596
ltoes -22.2027
277
root 0.181938 11.3231 -22.1964 35.8871 -50.5572 5.8884
lowerback 43.0635 -1.20306 4.75531
upperback 18.4472 -1.36011 -5.17827
thorax 0.0757152 -0.344381 -7.48433
lowerneck -5.04125 4.62774 3.28777
upperneck -26.7666 4.17404 -11.3151
head -6.96651 2.54322 -4.47627
rclavicle -2.14687e-014 5.54609e-014
rhumerus 72.1029 14.1089 -22.2956
rradius 27.7262
rwrist 13.8326
rhand -60.4056 7.98731
rfingers 7.12502
rthumb -32.5378 -19.1093
lclavicle -2.14687e-014 5.54609e-014
lhumerus 54.1125 2.00716 80.6303
lradius 67.6514
lwrist -5.23051
lhand -43.7456 -60.9159
lfingers 7.12502
lthumb -16.5763 -31.6038
rfemur -129.281 -25.911 40.1743
rtibia 108.388
rfoot -23.7546 6.49709
rtoes -8.42986
lfemur -95.4335 44.2703 -14.2602
ltibia 61.0886
lfoot -1.40402 7.39321
ltoes -21.648
278
root 0.276281 11.2321 -22.072 36.7163 -50.5351 4.75124
lowerback 43.7426 -1.05124 4.36416
upperback 18.4664 -1.35636 -5.52119
thorax -0.0971699 -0.351852 -7.64806
lowerneck -4.32392 4.57658 4.03482
upperneck -27.3214 4.11453 -11.238
head -7.25833 2.45664 -4.62417
rclavicle 6.67916e-014 -1.47101e-014
rhumerus 70.0042 13.669 -24.4251
rradius 30.7939
rwrist 11.2695
rhand -60.9426 15.4063
rfingers 7.12502
rthumb -33.0488 -11.5837
lclavicle 6.67916e-014 -1.47101e-014
lhumerus 53.817 1.35972 81.0655
lradius 66.1134
lwrist -5.9102
lhand -43.2379 -59.949
lfingers 7.12502
lthumb -16.0875 -30.5967
rfemur -129.823 -26.3485 40.8077
rtibia 108.663
rfoot -23.5406 7.05926
rtoes -8.99455
lfemur -97.7674 44.7723 -14.721
ltibia 64.0557
lfoot -2.0307 6.72981
ltoes -20.9502
279
root 0.375559 11.1465 -21.9482 37.2213 -50.5124 4.15288
lowerback 44.2543 -1.02814 3.83885
upperback 18.4703 -1.55861 -6.00006
thorax -0.278544 -0.453439 -7.81691
lowerneck -3.6474 4.61006 4.34306
upperneck -27.7235 4.26024 -10.8759
head -7.50352 2.48954 -4.60037
rclavicle -3.97569e-015 -6.08281e-014
rhumerus 67.765 13.2627 -26.1643
rradius 34.5174
rwrist 9.70349
rhand -60.6268 17.5225
rfingers 7.12502
rthumb -32.7484 -9.53046
lclavicle -3.97569e-015 -6.08281e-014
lhumerus 53.3429 0.712669 81.0619
lradius 64.4598
lwrist -7.29236
lhand -44.1224 -57.9975
lfingers 7.12502
lthumb -16.939 -28.7161
rfemur -130.456 -26.9535 40.9921
rtibia 108.862
rfoot -23.2567 7.59912
rtoes -9.72154
lfemur -99.8036 44.9003 -15.1387
ltibia 66.7371
lfoot -2.43326 6.54045
ltoes -19.8012
